<svg width="24" height="24" viewBox="0 0 24 24" fill="none" xmlns="http://www.w3.org/2000/svg">
  <path d="M12 2C10.9 2 10 2.9 10 4V8H8C7.45 8 7 8.45 7 9V11C7 11.55 7.45 12 8 12H10V16C10 17.1 10.9 18 12 18C13.1 18 14 17.1 14 16V12H16C16.55 12 17 11.55 17 11V9C17 8.45 16.55 8 16 8H14V4C14 2.9 13.1 2 12 2Z" fill="#637381"/>
  <path d="M4 20H20C21.1 20 22 19.1 22 18V16C22 14.9 21.1 14 20 14H4C2.9 14 2 14.9 2 16V18C2 19.1 2.9 20 4 20Z" fill="#637381"/>
  <path opacity="0.5" d="M12 20C10.34 20 9 18.66 9 17V12H7C6.45 12 6 11.55 6 11V9C6 8.45 6.45 8 7 8H9V4C9 3.45 9.45 3 10 3H12C12.55 3 13 3.45 13 4V8H15C15.55 8 16 8.45 16 9V11C16 11.55 15.55 12 15 12H13V17C13 18.66 11.66 20 10 20H12Z" fill="#637381"/>
</svg>
